<svg width="24" height="26" viewBox="0 0 24 26" fill="none" xmlns="http://www.w3.org/2000/svg">
<path d="M19.3335 21.3335H5.3335V10.3335H19.3335M16.3335 3.3335V5.3335H8.3335V3.3335H6.3335V5.3335H5.3335C4.2235 5.3335 3.3335 6.2235 3.3335 7.3335V21.3335C3.3335 21.8639 3.54421 22.3726 3.91928 22.7477C4.29436 23.1228 4.80306 23.3335 5.3335 23.3335H19.3335C19.8639 23.3335 20.3726 23.1228 20.7477 22.7477C21.1228 22.3726 21.3335 21.8639 21.3335 21.3335V7.3335C21.3335 6.80306 21.1228 6.29436 20.7477 5.91928C20.3726 5.54421 19.8639 5.3335 19.3335 5.3335H18.3335V3.3335M17.3335 14.3335H12.3335V19.3335H17.3335V14.3335Z" fill="#1E1E1E"/>
</svg>
