<svg width="23" height="23" viewBox="0 0 23 23" fill="none" xmlns="http://www.w3.org/2000/svg">
<path d="M16.0995 3.24121H7.4186C6.33516 3.24121 5.2961 3.6716 4.53 4.43771C3.76389 5.20382 3.3335 6.24288 3.3335 7.32632V16.0072C3.3335 17.0906 3.76389 18.1297 4.53 18.8958C5.2961 19.6619 6.33516 20.0923 7.4186 20.0923H14.4072C14.9438 20.0923 15.4751 19.9866 15.9709 19.7812C16.4666 19.5759 16.917 19.2748 17.2964 18.8953L18.9876 17.2041C19.3671 16.8247 19.6681 16.3743 19.8735 15.8786C20.0789 15.3828 20.1846 14.8515 20.1846 14.3149V7.32632C20.1846 6.24288 19.7542 5.20382 18.9881 4.43771C18.222 3.6716 17.1829 3.24121 16.0995 3.24121Z" stroke="black" stroke-width="1.53191" stroke-linecap="round" stroke-linejoin="round"/>
<path d="M20.1844 13.4538H16.6099C15.7974 13.4538 15.0181 13.7766 14.4435 14.3512C13.8689 14.9258 13.5461 15.7051 13.5461 16.5177V20.0921M7.41846 7.32617H15.078M7.41846 11.4113H12.5248" stroke="black" stroke-width="1.53191" stroke-linecap="round" stroke-linejoin="round"/>
</svg>
