<svg width="27" height="29" viewBox="0 0 27 29" fill="none" xmlns="http://www.w3.org/2000/svg">
<path d="M13.5 0L27 6.57692V9.5H0V6.57692L13.5 0ZM19.5 10.9615H25.5V22.6538H19.5V10.9615ZM0 28.5V24.1154H27V28.5H0ZM10.5 10.9615H16.5V22.6538H10.5V10.9615ZM1.5 10.9615H7.5V22.6538H1.5V10.9615ZM1.5 25.5769V27.0385H25.5V25.5769H1.5ZM3 12.4231V21.1923H6V12.4231H3ZM12 12.4231V21.1923H15V12.4231H12ZM21 12.4231V21.1923H24V12.4231H21ZM1.5 8.03846H25.5V7.45385L13.5 1.57846L1.5 7.45385V8.03846Z" fill="#1E1E1E"/>
</svg>
