<svg width="271" height="70" viewBox="0 0 271 70" fill="none" xmlns="http://www.w3.org/2000/svg">
<path d="M48.5564 0.21173L18.409 14.4036C17.6949 14.7429 17.2393 15.4278 17.2393 16.1832V29.9012L31.3642 23.2502C32.772 22.5909 34.4245 23.551 34.4245 25.0299V39.2153L50.4402 31.6744C51.1542 31.3352 51.6099 30.6502 51.6099 29.8949V1.99131C51.6099 0.512596 49.9574 -0.44761 48.5496 0.21173H48.5564Z" fill="#E17A05"/>
<path d="M17.1819 44.9726V30.7847L1.16949 38.3205C0.455555 38.6598 0 39.3447 0 40.1003V68.0083C0 69.4873 1.65224 70.4478 3.05971 69.7882L33.2012 55.6005C33.9151 55.2612 34.3706 54.576 34.3706 53.8206V40.1003L20.2484 46.7524C18.841 47.4118 17.1887 46.4515 17.1887 44.9726H17.1819Z" fill="#1E1E1E"/>
<path d="M102 50.048C99.152 50.048 97.728 49.728 97.728 49.088L96.72 29.84L90.864 49.328C90.736 49.712 89.648 49.904 87.6 49.904C85.552 49.904 84.496 49.728 84.432 49.376L78.384 29.648L77.712 48.8C77.68 49.28 77.072 49.616 75.888 49.808C74.704 49.968 73.712 50.048 72.912 50.048C72.144 50.048 71.392 50 70.656 49.904C69.12 49.68 68.368 49.28 68.4 48.704L69.504 17.504C69.504 16.736 71.456 16.352 75.36 16.352C76.512 16.352 77.92 16.448 79.584 16.64C81.248 16.8 82.176 17.136 82.368 17.648L87.744 32.768L92.448 17.6C92.736 16.768 94.944 16.352 99.072 16.352C100.256 16.352 101.664 16.448 103.296 16.64C104.96 16.8 105.792 17.104 105.792 17.552L107.184 49.04C107.184 49.392 106.56 49.648 105.312 49.808C104.064 49.968 102.96 50.048 102 50.048ZM129.851 48.704C127.835 49.888 125.243 50.48 122.075 50.48C118.907 50.48 116.235 49.408 114.059 47.264C111.883 45.088 110.795 42.096 110.795 38.288C110.795 34.448 111.835 31.36 113.915 29.024C116.027 26.688 118.683 25.52 121.883 25.52C125.083 25.52 127.547 26.336 129.275 27.968C131.035 29.6 131.915 31.584 131.915 33.92C131.915 39.104 128.939 41.696 122.987 41.696H119.675C119.675 42.656 119.931 43.328 120.443 43.712C120.987 44.064 121.771 44.24 122.795 44.24C125.035 44.24 127.163 43.728 129.179 42.704C129.211 42.672 129.355 42.896 129.611 43.376C130.379 44.752 130.763 45.92 130.763 46.88C130.763 47.808 130.459 48.416 129.851 48.704ZM123.851 34.832C123.851 33.488 123.195 32.816 121.883 32.816C121.275 32.816 120.747 33.008 120.299 33.392C119.883 33.744 119.675 34.272 119.675 34.976V36.464H122.267C123.323 36.464 123.851 35.92 123.851 34.832ZM134.811 26.288C134.811 25.936 136.187 25.76 138.939 25.76C141.691 25.76 143.067 25.936 143.067 26.288V40.304C143.067 41.904 143.579 42.704 144.603 42.704C145.371 42.704 146.235 42.368 147.195 41.696V26.288C147.195 25.968 148.555 25.808 151.275 25.808C153.995 25.808 155.355 25.968 155.355 26.288V42.032H156.603C157.691 42.032 158.235 43.072 158.235 45.152C158.235 46.208 158.011 47.28 157.563 48.368C156.923 49.776 156.059 50.48 154.971 50.48C152.827 50.48 151.243 49.6 150.219 47.84L150.171 47.888C148.219 49.616 146.123 50.48 143.883 50.48C140.779 50.48 138.491 49.712 137.019 48.176C135.547 46.608 134.811 44.032 134.811 40.448V26.288Z" fill="black"/>
<path d="M184.968 25.088C184.968 28.416 183.528 30.944 180.648 32.672C182.216 33.248 183.528 34.24 184.584 35.648C185.64 37.056 186.168 39.056 186.168 41.648C186.168 44.208 185.208 46.24 183.288 47.744C181.4 49.248 178.68 50 175.128 50H163.8C163.256 50 162.808 49.824 162.456 49.472C162.104 49.088 161.928 48.592 161.928 47.984V17.264C161.928 16.912 161.976 16.688 162.072 16.592C162.2 16.464 162.44 16.4 162.792 16.4H173.736C181.224 16.4 184.968 19.296 184.968 25.088ZM171.144 24.176V30.464H171.384C174.456 30.464 175.992 29.44 175.992 27.392C175.992 26.272 175.688 25.456 175.08 24.944C174.504 24.432 173.528 24.176 172.152 24.176H171.144ZM171.144 36.128V42.368H172.008C173.384 42.368 174.392 42.112 175.032 41.6C175.672 41.088 175.992 40.272 175.992 39.152C175.992 38.032 175.688 37.248 175.08 36.8C174.504 36.352 173.528 36.128 172.152 36.128H171.144ZM191.724 47.168C189.74 44.96 188.748 41.904 188.748 38C188.748 34.096 189.74 31.04 191.724 28.832C193.74 26.624 196.444 25.52 199.836 25.52C203.228 25.52 205.916 26.624 207.9 28.832C209.884 31.04 210.876 34.096 210.876 38C210.876 41.904 209.884 44.96 207.9 47.168C205.916 49.376 203.228 50.48 199.836 50.48C196.444 50.48 193.74 49.376 191.724 47.168ZM199.836 33.536C198.044 33.536 197.148 35.008 197.148 37.952C197.148 40.896 198.044 42.368 199.836 42.368C201.66 42.368 202.572 40.896 202.572 37.952C202.572 35.008 201.66 33.536 199.836 33.536ZM223.005 49.616C223.005 49.904 221.373 50.048 218.109 50.048C215.549 50.016 214.269 49.888 214.269 49.664V16.976C214.269 16.496 215.821 16.256 218.925 16.256C221.645 16.352 223.005 16.512 223.005 16.736V49.616ZM228.355 41.36C230.947 42.928 232.996 43.712 234.5 43.712C235.46 43.712 235.94 43.376 235.94 42.704C235.94 42.224 235.108 41.6 233.444 40.832C229.444 39.2 227.444 36.528 227.444 32.816C227.444 30.448 228.308 28.64 230.036 27.392C231.764 26.144 233.828 25.52 236.228 25.52C238.66 25.52 240.708 25.776 242.372 26.288C244.068 26.8 244.916 27.472 244.916 28.304C244.916 29.008 244.564 29.936 243.86 31.088C243.188 32.24 242.724 32.864 242.468 32.96C241.092 32.192 239.604 31.808 238.004 31.808C237.14 31.808 236.708 32.112 236.708 32.72C236.708 33.104 236.868 33.44 237.188 33.728C237.54 33.984 238.164 34.32 239.06 34.736C239.956 35.12 240.692 35.472 241.268 35.792C241.876 36.112 242.548 36.56 243.284 37.136C244.82 38.352 245.588 39.936 245.588 41.888C245.588 44.448 244.74 46.528 243.044 48.128C241.348 49.696 238.788 50.48 235.364 50.48C233.092 50.48 231.028 50.096 229.172 49.328C227.316 48.56 226.388 47.504 226.388 46.16C226.388 45.264 226.596 44.32 227.012 43.328C227.46 42.336 227.908 41.68 228.355 41.36ZM251.021 47.168C249.037 44.96 248.045 41.904 248.045 38C248.045 34.096 249.037 31.04 251.021 28.832C253.037 26.624 255.741 25.52 259.133 25.52C262.525 25.52 265.213 26.624 267.197 28.832C269.181 31.04 270.173 34.096 270.173 38C270.173 41.904 269.181 44.96 267.197 47.168C265.213 49.376 262.525 50.48 259.133 50.48C255.741 50.48 253.037 49.376 251.021 47.168ZM259.133 33.536C257.341 33.536 256.445 35.008 256.445 37.952C256.445 40.896 257.341 42.368 259.133 42.368C260.957 42.368 261.869 40.896 261.869 37.952C261.869 35.008 260.957 33.536 259.133 33.536Z" fill="#E17A05"/>
</svg>
