<svg width="27" height="27" viewBox="0 0 27 27" fill="none" xmlns="http://www.w3.org/2000/svg">
<rect x="0.083374" y="0.166687" width="26.6667" height="26.6667" rx="13.3333" fill="white"/>
<path d="M20.0834 14.6111H14.5278V20.1667C14.5278 20.7778 14.0278 21.2778 13.4167 21.2778C12.8056 21.2778 12.3056 20.7778 12.3056 20.1667V14.6111H6.75003C6.13892 14.6111 5.63892 14.1111 5.63892 13.5C5.63892 12.8889 6.13892 12.3889 6.75003 12.3889H12.3056V6.83334C12.3056 6.22223 12.8056 5.72223 13.4167 5.72223C14.0278 5.72223 14.5278 6.22223 14.5278 6.83334V12.3889H20.0834C20.6945 12.3889 21.1945 12.8889 21.1945 13.5C21.1945 14.1111 20.6945 14.6111 20.0834 14.6111Z" fill="#E17A05"/>
</svg>
