<svg width="23" height="16" viewBox="0 0 23 16" fill="none" xmlns="http://www.w3.org/2000/svg">
<path d="M0.395996 1.59998C0.395996 1.33476 0.501353 1.08041 0.688889 0.892869C0.876426 0.705332 1.13078 0.599976 1.396 0.599976H21.396C21.6612 0.599976 21.9156 0.705332 22.1031 0.892869C22.2906 1.08041 22.396 1.33476 22.396 1.59998C22.396 1.86519 22.2906 2.11955 22.1031 2.30708C21.9156 2.49462 21.6612 2.59998 21.396 2.59998H1.396C1.13078 2.59998 0.876426 2.49462 0.688889 2.30708C0.501353 2.11955 0.395996 1.86519 0.395996 1.59998ZM3.72933 8.26664C3.72933 8.00143 3.83469 7.74707 4.02222 7.55954C4.20976 7.372 4.46411 7.26664 4.72933 7.26664H18.0627C18.3279 7.26664 18.5822 7.372 18.7698 7.55954C18.9573 7.74707 19.0627 8.00143 19.0627 8.26664C19.0627 8.53186 18.9573 8.78621 18.7698 8.97375C18.5822 9.16128 18.3279 9.26664 18.0627 9.26664H4.72933C4.46411 9.26664 4.20976 9.16128 4.02222 8.97375C3.83469 8.78621 3.72933 8.53186 3.72933 8.26664ZM7.72933 14.9333C7.72933 14.6681 7.83469 14.4137 8.02222 14.2262C8.20976 14.0387 8.46411 13.9333 8.72933 13.9333H14.0627C14.3279 13.9333 14.5822 14.0387 14.7698 14.2262C14.9573 14.4137 15.0627 14.6681 15.0627 14.9333C15.0627 15.1985 14.9573 15.4529 14.7698 15.6404C14.5822 15.828 14.3279 15.9333 14.0627 15.9333H8.72933C8.46411 15.9333 8.20976 15.828 8.02222 15.6404C7.83469 15.4529 7.72933 15.1985 7.72933 14.9333Z" fill="black"/>
</svg>
