<svg width="24" height="24" viewBox="0 0 24 24" fill="none" xmlns="http://www.w3.org/2000/svg">
<path d="M17.0627 15.2666H16.0093L15.636 14.9066C16.9879 13.3387 17.7309 11.3369 17.7293 9.26665C17.7293 7.55254 17.221 5.87693 16.2687 4.4517C15.3164 3.02648 13.9629 1.91565 12.3793 1.25969C10.7956 0.603731 9.05305 0.432102 7.37188 0.766507C5.69071 1.10091 4.14646 1.92633 2.93441 3.13839C1.72235 4.35044 0.896933 5.89469 0.562528 7.57586C0.228122 9.25703 0.399751 10.9996 1.05571 12.5832C1.71167 14.1669 2.8225 15.5204 4.24773 16.4727C5.67295 17.425 7.34856 17.9333 9.06267 17.9333C11.2093 17.9333 13.1827 17.1466 14.7027 15.84L15.0627 16.2133V17.2666L21.7293 23.92L23.716 21.9333L17.0627 15.2666ZM9.06267 15.2666C5.74267 15.2666 3.06267 12.5866 3.06267 9.26665C3.06267 5.94665 5.74267 3.26665 9.06267 3.26665C12.3827 3.26665 15.0627 5.94665 15.0627 9.26665C15.0627 12.5866 12.3827 15.2666 9.06267 15.2666Z" fill="black"/>
</svg>
