<svg width="29" height="30" viewBox="0 0 29 30" fill="none" xmlns="http://www.w3.org/2000/svg">
<g clip-path="url(#clip0_48_446)">
<path d="M16.4571 13.1429C16.4571 14.2341 16.0237 15.2805 15.2521 16.0521C14.4805 16.8237 13.434 17.2572 12.3429 17.2572C11.2517 17.2572 10.2052 16.8237 9.43362 16.0521C8.66204 15.2805 8.22857 14.2341 8.22857 13.1429C8.22857 12.0517 8.66204 11.0052 9.43362 10.2336C10.2052 9.46206 11.2517 9.02859 12.3429 9.02859C13.434 9.02859 14.4805 9.46206 15.2521 10.2336C16.0237 11.0052 16.4571 12.0517 16.4571 13.1429ZM14.4 13.1429C14.4 12.5973 14.1833 12.074 13.7975 11.6883C13.4117 11.3025 12.8884 11.0857 12.3429 11.0857C11.7973 11.0857 11.274 11.3025 10.8882 11.6883C10.5024 12.074 10.2857 12.5973 10.2857 13.1429C10.2857 13.6885 10.5024 14.2117 10.8882 14.5975C11.274 14.9833 11.7973 15.2 12.3429 15.2C12.8884 15.2 13.4117 14.9833 13.7975 14.5975C14.1833 14.2117 14.4 13.6885 14.4 13.1429ZM0 7.48573C0 6.06631 1.152 4.91431 2.57143 4.91431H22.1143C23.5337 4.91431 24.6857 6.06631 24.6857 7.48573V18.8C24.6857 20.2194 23.5337 21.3714 22.1143 21.3714H2.57143C1.152 21.3714 0 20.2194 0 18.8V7.48573ZM2.57143 6.97145C2.43503 6.97145 2.30422 7.02563 2.20777 7.12208C2.11133 7.21853 2.05714 7.34934 2.05714 7.48573V9.02859H3.08571C3.35851 9.02859 3.62013 8.92022 3.81302 8.72733C4.00592 8.53444 4.11429 8.27281 4.11429 8.00002V6.97145H2.57143ZM2.05714 18.8C2.05714 19.0839 2.28754 19.3143 2.57143 19.3143H4.11429V18.2857C4.11429 18.0129 4.00592 17.7513 3.81302 17.5584C3.62013 17.3655 3.35851 17.2572 3.08571 17.2572H2.05714V18.8ZM6.17143 18.2857V19.3143H18.5143V18.2857C18.5143 17.4674 18.8394 16.6825 19.4181 16.1038C19.9968 15.5251 20.7816 15.2 21.6 15.2H22.6286V11.0857H21.6C20.7816 11.0857 19.9968 10.7606 19.4181 10.182C18.8394 9.60327 18.5143 8.8184 18.5143 8.00002V6.97145H6.17143V8.00002C6.17143 8.8184 5.84633 9.60327 5.26764 10.182C4.68896 10.7606 3.9041 11.0857 3.08571 11.0857H2.05714V15.2H3.08571C3.9041 15.2 4.68896 15.5251 5.26764 16.1038C5.84633 16.6825 6.17143 17.4674 6.17143 18.2857ZM20.5714 19.3143H22.1143C22.2507 19.3143 22.3815 19.2601 22.4779 19.1637C22.5744 19.0672 22.6286 18.9364 22.6286 18.8V17.2572H21.6C21.3272 17.2572 21.0656 17.3655 20.8727 17.5584C20.6798 17.7513 20.5714 18.0129 20.5714 18.2857V19.3143ZM22.6286 9.02859V7.48573C22.6286 7.34934 22.5744 7.21853 22.4779 7.12208C22.3815 7.02563 22.2507 6.97145 22.1143 6.97145H20.5714V8.00002C20.5714 8.27281 20.6798 8.53444 20.8727 8.72733C21.0656 8.92022 21.3272 9.02859 21.6 9.02859H22.6286ZM7.2 25.4857C6.54834 25.486 5.91332 25.2799 5.38598 24.8971C4.85864 24.5142 4.46604 23.9742 4.26446 23.3545C4.54971 23.4039 4.84251 23.4286 5.14286 23.4286H22.1143C23.3419 23.4286 24.5192 22.9409 25.3872 22.0729C26.2552 21.2049 26.7429 20.0276 26.7429 18.8V9.20345C27.3447 9.41624 27.8658 9.81048 28.2342 10.3318C28.6027 10.8531 28.8003 11.4759 28.8 12.1143V18.8C28.8 19.678 28.6271 20.5474 28.2911 21.3585C27.9551 22.1697 27.4626 22.9067 26.8418 23.5275C26.221 24.1484 25.4839 24.6408 24.6728 24.9768C23.8616 25.3128 22.9923 25.4857 22.1143 25.4857H7.2Z" fill="#BC7D18"/>
</g>
<defs>
<clipPath id="clip0_48_446">
<rect y="0.799988" width="28.8" height="28.8" rx="9.6" fill="white"/>
</clipPath>
</defs>
</svg>
