<svg width="40" height="40" viewBox="0 0 40 40" fill="none" xmlns="http://www.w3.org/2000/svg">
<path d="M33.4917 20.0043C33.094 20.0043 32.7126 20.1623 32.4314 20.4436C32.1502 20.7248 31.9922 21.1062 31.9922 21.5039V30.5013C31.9922 30.899 31.8342 31.2804 31.553 31.5617C31.2717 31.8429 30.8903 32.0009 30.4926 32.0009H9.4987C9.10099 32.0009 8.71957 31.8429 8.43834 31.5617C8.15712 31.2804 7.99913 30.899 7.99913 30.5013V9.50739C7.99913 9.10968 8.15712 8.72826 8.43834 8.44704C8.71957 8.16582 9.10099 8.00783 9.4987 8.00783H18.4961C18.8938 8.00783 19.2752 7.84984 19.5564 7.56861C19.8377 7.28739 19.9957 6.90597 19.9957 6.50826C19.9957 6.11055 19.8377 5.72913 19.5564 5.44791C19.2752 5.16668 18.8938 5.00869 18.4961 5.00869H9.4987C8.30557 5.00869 7.16131 5.48266 6.31764 6.32633C5.47397 7.17 5 8.31426 5 9.50739V30.5013C5 31.6944 5.47397 32.8387 6.31764 33.6824C7.16131 34.526 8.30557 35 9.4987 35H30.4926C31.6857 35 32.83 34.526 33.6737 33.6824C34.5173 32.8387 34.9913 31.6944 34.9913 30.5013V21.5039C34.9913 21.1062 34.8333 20.7248 34.5521 20.4436C34.2709 20.1623 33.8894 20.0043 33.4917 20.0043ZM10.9983 21.144V27.5022C10.9983 27.8999 11.1563 28.2813 11.4375 28.5625C11.7187 28.8438 12.1001 29.0017 12.4978 29.0017H18.856C19.0533 29.0029 19.249 28.9651 19.4317 28.8904C19.6144 28.8158 19.7806 28.7058 19.9207 28.5669L30.2977 18.1749L34.5564 14.0061C34.697 13.8667 34.8085 13.7008 34.8847 13.5181C34.9608 13.3354 35 13.1394 35 12.9414C35 12.7434 34.9608 12.5474 34.8847 12.3647C34.8085 12.182 34.697 12.0161 34.5564 11.8767L28.1983 5.44357C28.0589 5.30302 27.893 5.19146 27.7103 5.11533C27.5275 5.0392 27.3315 5 27.1336 5C26.9356 5 26.7396 5.0392 26.5569 5.11533C26.3741 5.19146 26.2083 5.30302 26.0689 5.44357L21.8401 9.68734L11.4331 20.0793C11.2942 20.2194 11.1842 20.3856 11.1096 20.5683C11.0349 20.751 10.9971 20.9467 10.9983 21.144ZM27.1336 8.62265L31.3774 12.8664L29.248 14.9958L25.0042 10.752L27.1336 8.62265ZM13.9974 21.7588L22.8898 12.8664L27.1336 17.1102L18.2412 26.0026H13.9974V21.7588Z" fill="black"/>
</svg>
