<svg width="26" height="34" viewBox="0 0 26 34" fill="none" xmlns="http://www.w3.org/2000/svg">
<path d="M1.3335 8.66667H24.6668M9.66683 13.6667V27M16.3335 13.6667V27M9.66683 2H16.3335C16.7755 2 17.1994 2.17559 17.512 2.48816C17.8246 2.80072 18.0002 3.22464 18.0002 3.66667V8.66667H8.00016V3.66667C8.00016 3.22464 8.17576 2.80072 8.48832 2.48816C8.80088 2.17559 9.2248 2 9.66683 2ZM3.00016 8.66667H23.0002V30.3333C23.0002 30.7754 22.8246 31.1993 22.512 31.5118C22.1995 31.8244 21.7755 32 21.3335 32H4.66683C4.2248 32 3.80088 31.8244 3.48832 31.5118C3.17576 31.1993 3.00016 30.7754 3.00016 30.3333V8.66667Z" stroke="black" stroke-width="2.66667" stroke-linecap="round" stroke-linejoin="round"/>
</svg>
