<svg width="15" height="15" viewBox="0 0 15 15" fill="none" xmlns="http://www.w3.org/2000/svg">
<path d="M13.9722 2.9134L9.25816 7.62744L13.9722 12.3415C14.4908 12.86 14.4908 13.7086 13.9722 14.2271C13.4537 14.7457 12.6051 14.7457 12.0866 14.2271L7.37254 9.51306L2.6585 14.2271C2.13995 14.7456 1.29143 14.7456 0.772881 14.2271C0.254336 13.7086 0.254336 12.86 0.772881 12.3415L5.48693 7.62744L0.772881 2.9134C0.254336 2.39485 0.254336 1.54632 0.772881 1.02778C1.29143 0.509233 2.13995 0.509233 2.6585 1.02778L7.37254 5.74182L12.0866 1.02778C12.6051 0.509233 13.4537 0.509233 13.9722 1.02778C14.4908 1.54632 14.4908 2.39485 13.9722 2.9134Z" fill="black"/>
</svg>
