<svg width="16" height="17" viewBox="0 0 16 17" fill="none" xmlns="http://www.w3.org/2000/svg">
<path d="M3.33326 2.74517V14.7452C3.33364 14.8667 3.36715 14.9858 3.43018 15.0896C3.49321 15.1935 3.58337 15.2782 3.69096 15.3346C3.79856 15.3911 3.9195 15.4171 4.04078 15.4099C4.16207 15.4027 4.27909 15.3626 4.37926 15.2938L13.0459 9.29384C13.4053 9.04517 13.4053 8.44651 13.0459 8.19718L4.37926 2.19717C4.2793 2.12772 4.16222 2.087 4.04073 2.07942C3.91925 2.07184 3.79801 2.0977 3.69019 2.15418C3.58237 2.21067 3.49209 2.29562 3.42917 2.39982C3.36624 2.50401 3.33307 2.62345 3.33326 2.74517Z" fill="black"/>
</svg>
