<svg width="24" height="28" viewBox="0 0 24 28" fill="none" xmlns="http://www.w3.org/2000/svg">
<g clip-path="url(#clip0_962_1698)">
<path d="M21.3333 25.2549H2.66667V10.5882H21.3333M17.3333 1.25488V3.92155H6.66667V1.25488H4V3.92155H2.66667C1.18667 3.92155 0 5.10822 0 6.58822V25.2549C0 25.9621 0.280951 26.6404 0.781048 27.1405C1.28115 27.6406 1.95942 27.9215 2.66667 27.9215H21.3333C22.0406 27.9215 22.7189 27.6406 23.219 27.1405C23.719 26.6404 24 25.9621 24 25.2549V6.58822C24 5.88097 23.719 5.2027 23.219 4.7026C22.7189 4.2025 22.0406 3.92155 21.3333 3.92155H20V1.25488M18.6667 15.9215H12V22.5882H18.6667V15.9215Z" fill="#E17A05"/>
</g>
<defs>
<clipPath id="clip0_962_1698">
<rect width="24" height="27" fill="white" transform="translate(0 0.921509)"/>
</clipPath>
</defs>
</svg>
