<svg width="22" height="21" viewBox="0 0 22 21" fill="none" xmlns="http://www.w3.org/2000/svg">
<mask id="mask0_961_1684" style="mask-type:luminance" maskUnits="userSpaceOnUse" x="0" y="1" width="22" height="20">
<path d="M22 1.08826H0V20.0883H22V1.08826Z" fill="white"/>
</mask>
<g mask="url(#mask0_961_1684)">
<path d="M1.25 16.5049C6.58561 16.5006 11.898 17.2072 17.047 18.6059C17.774 18.8039 18.5 18.2639 18.5 17.5099V16.5049M2.75 2.255V3.005C2.75 3.20391 2.67098 3.39468 2.53033 3.53533C2.38968 3.67598 2.19891 3.755 2 3.755H1.25M1.25 3.755V3.38C1.25 2.759 1.754 2.255 2.375 2.255H19.25M1.25 3.755V12.7549M19.25 2.255V3.005C19.25 3.419 19.586 3.755 20 3.755H20.75M19.25 2.255H19.625C20.246 2.255 20.75 2.759 20.75 3.38V13.1299C20.75 13.7509 20.246 14.2549 19.625 14.2549H19.25M1.25 12.7549V13.1299C1.25 13.4283 1.36853 13.7145 1.5795 13.9254C1.79048 14.1364 2.07663 14.2549 2.375 14.2549H2.75M1.25 12.7549H2C2.19891 12.7549 2.38968 12.834 2.53033 12.9746C2.67098 13.1153 2.75 13.306 2.75 13.5049V14.2549M19.25 14.2549V13.5049C19.25 13.306 19.329 13.1153 19.4697 12.9746C19.6103 12.834 19.8011 12.7549 20 12.7549H20.75M19.25 14.2549H2.75M14 8.255C14 9.05065 13.6839 9.81371 13.1213 10.3763C12.5587 10.9389 11.7956 11.2549 11 11.2549C10.2044 11.2549 9.44129 10.9389 8.87868 10.3763C8.31607 9.81371 8 9.05065 8 8.255C8 7.45935 8.31607 6.6963 8.87868 6.13369C9.44129 5.57108 10.2044 5.255 11 5.255C11.7956 5.255 12.5587 5.57108 13.1213 6.13369C13.6839 6.6963 14 7.45935 14 8.255ZM17 8.255H17.008V8.263H17V8.255ZM5 8.255H5.008V8.263H5V8.255Z" stroke="#E17A05" stroke-width="1.5" stroke-linecap="round" stroke-linejoin="round"/>
</g>
</svg>
