<svg width="901" height="237" viewBox="0 0 901 237" fill="none" xmlns="http://www.w3.org/2000/svg">
<path d="M191.987 26.4526L112.929 63.9717L120.299 78.7114H219.456L191.987 26.4526Z" fill="#E17A05" stroke="black" stroke-width="4.0199"/>
<path d="M159.158 78.7975C165.857 69.4177 181.937 70.0877 188.637 78.7975" stroke="black" stroke-width="4.0199"/>
<path d="M130.348 77.3713L126.328 69.3315L187.967 39.8522L208.737 77.3713" stroke="black" stroke-width="4.0199"/>
<path d="M246.256 78.7114H110.249C107.289 78.7114 104.889 81.1111 104.889 84.0713V170.222C104.889 171.683 105.509 173.106 106.57 174.111C160.84 225.506 192.799 225.353 249.829 174.123C250.953 173.113 251.615 171.648 251.615 170.137V84.0713C251.615 81.1111 249.216 78.7114 246.256 78.7114Z" fill="#1E1E1E" stroke="black" stroke-width="4.0199"/>
<path d="M392 163.289C384.405 163.289 380.608 162.436 380.608 160.729L377.92 109.401L362.304 161.369C361.963 162.393 359.061 162.905 353.6 162.905C348.139 162.905 345.323 162.436 345.152 161.497L329.024 108.889L327.232 159.961C327.147 161.241 325.525 162.137 322.368 162.649C319.211 163.076 316.565 163.289 314.432 163.289C312.384 163.289 310.379 163.161 308.416 162.905C304.32 162.308 302.315 161.241 302.4 159.705L305.344 76.5054C305.344 74.4574 310.549 73.4334 320.96 73.4334C324.032 73.4334 327.787 73.6894 332.224 74.2014C336.661 74.628 339.136 75.524 339.648 76.8894L353.984 117.209L366.528 76.7614C367.296 74.5427 373.184 73.4334 384.192 73.4334C387.349 73.4334 391.104 73.6894 395.456 74.2014C399.893 74.628 402.112 75.4387 402.112 76.6334L405.824 160.601C405.824 161.54 404.16 162.223 400.832 162.649C397.504 163.076 394.56 163.289 392 163.289ZM466.269 159.705C460.893 162.863 453.981 164.441 445.533 164.441C437.085 164.441 429.96 161.583 424.157 155.865C418.354 150.063 415.453 142.084 415.453 131.929C415.453 121.689 418.226 113.455 423.773 107.225C429.405 100.996 436.488 97.8814 445.021 97.8814C453.554 97.8814 460.125 100.057 464.733 104.409C469.426 108.761 471.773 114.052 471.773 120.281C471.773 134.105 463.837 141.017 447.965 141.017H439.133C439.133 143.577 439.816 145.369 441.181 146.393C442.632 147.332 444.722 147.801 447.453 147.801C453.426 147.801 459.101 146.436 464.477 143.705C464.562 143.62 464.946 144.217 465.629 145.497C467.677 149.167 468.701 152.281 468.701 154.841C468.701 157.316 467.89 158.937 466.269 159.705ZM450.269 122.713C450.269 119.129 448.52 117.337 445.021 117.337C443.4 117.337 441.992 117.849 440.797 118.873C439.688 119.812 439.133 121.22 439.133 123.097V127.065H446.045C448.861 127.065 450.269 125.615 450.269 122.713ZM479.495 99.9294C479.495 98.9907 483.164 98.5214 490.503 98.5214C497.842 98.5214 501.511 98.9907 501.511 99.9294V137.305C501.511 141.572 502.876 143.705 505.607 143.705C507.655 143.705 509.959 142.809 512.519 141.017V99.9294C512.519 99.076 516.146 98.6494 523.399 98.6494C530.652 98.6494 534.279 99.076 534.279 99.9294V141.913H537.607C540.508 141.913 541.959 144.687 541.959 150.233C541.959 153.049 541.362 155.908 540.167 158.809C538.46 162.564 536.156 164.441 533.255 164.441C527.538 164.441 523.314 162.095 520.583 157.401L520.455 157.529C515.25 162.137 509.66 164.441 503.687 164.441C495.41 164.441 489.308 162.393 485.383 158.297C481.458 154.116 479.495 147.247 479.495 137.689V99.9294Z" fill="#1E1E1E"/>
<path d="M613.248 96.7294C613.248 105.604 609.408 112.345 601.728 116.953C605.909 118.489 609.408 121.135 612.224 124.889C615.04 128.644 616.448 133.977 616.448 140.889C616.448 147.716 613.888 153.135 608.768 157.145C603.733 161.156 596.48 163.161 587.008 163.161H556.8C555.349 163.161 554.155 162.692 553.216 161.753C552.277 160.729 551.808 159.407 551.808 157.785V75.8654C551.808 74.9267 551.936 74.3294 552.192 74.0734C552.533 73.732 553.173 73.5614 554.112 73.5614H583.296C603.264 73.5614 613.248 81.284 613.248 96.7294ZM576.384 94.2974V111.065H577.024C585.216 111.065 589.312 108.335 589.312 102.873C589.312 99.8867 588.501 97.7107 586.88 96.3454C585.344 94.98 582.741 94.2974 579.072 94.2974H576.384ZM576.384 126.169V142.809H578.688C582.357 142.809 585.045 142.127 586.752 140.761C588.459 139.396 589.312 137.22 589.312 134.233C589.312 131.247 588.501 129.156 586.88 127.961C585.344 126.767 582.741 126.169 579.072 126.169H576.384ZM631.264 155.609C625.973 149.721 623.328 141.572 623.328 131.161C623.328 120.751 625.973 112.601 631.264 106.713C636.64 100.825 643.851 97.8814 652.896 97.8814C661.941 97.8814 669.109 100.825 674.4 106.713C679.691 112.601 682.336 120.751 682.336 131.161C682.336 141.572 679.691 149.721 674.4 155.609C669.109 161.497 661.941 164.441 652.896 164.441C643.851 164.441 636.64 161.497 631.264 155.609ZM652.896 119.257C648.117 119.257 645.728 123.183 645.728 131.033C645.728 138.884 648.117 142.809 652.896 142.809C657.76 142.809 660.192 138.884 660.192 131.033C660.192 123.183 657.76 119.257 652.896 119.257ZM714.681 162.137C714.681 162.905 710.329 163.289 701.625 163.289C694.798 163.204 691.385 162.863 691.385 162.265V75.0974C691.385 73.8174 695.524 73.1774 703.801 73.1774C711.054 73.4334 714.681 73.86 714.681 74.4574V162.137ZM728.948 140.121C735.86 144.303 741.321 146.393 745.332 146.393C747.892 146.393 749.172 145.497 749.172 143.705C749.172 142.425 746.953 140.761 742.516 138.713C731.849 134.361 726.516 127.236 726.516 117.337C726.516 111.023 728.82 106.201 733.428 102.873C738.036 99.5454 743.54 97.8814 749.94 97.8814C756.425 97.8814 761.887 98.564 766.324 99.9294C770.847 101.295 773.108 103.087 773.108 105.305C773.108 107.183 772.169 109.657 770.292 112.729C768.5 115.801 767.263 117.465 766.58 117.721C762.911 115.673 758.943 114.649 754.676 114.649C752.372 114.649 751.22 115.46 751.22 117.081C751.22 118.105 751.647 119.001 752.5 119.769C753.439 120.452 755.103 121.348 757.492 122.457C759.881 123.481 761.844 124.42 763.38 125.273C765.001 126.127 766.793 127.321 768.756 128.857C772.852 132.1 774.9 136.324 774.9 141.529C774.9 148.356 772.639 153.903 768.116 158.169C763.593 162.351 756.767 164.441 747.636 164.441C741.577 164.441 736.073 163.417 731.124 161.369C726.175 159.321 723.7 156.505 723.7 152.921C723.7 150.532 724.255 148.015 725.364 145.369C726.559 142.724 727.753 140.975 728.948 140.121ZM789.389 155.609C784.098 149.721 781.453 141.572 781.453 131.161C781.453 120.751 784.098 112.601 789.389 106.713C794.765 100.825 801.976 97.8814 811.021 97.8814C820.066 97.8814 827.234 100.825 832.525 106.713C837.816 112.601 840.461 120.751 840.461 131.161C840.461 141.572 837.816 149.721 832.525 155.609C827.234 161.497 820.066 164.441 811.021 164.441C801.976 164.441 794.765 161.497 789.389 155.609ZM811.021 119.257C806.242 119.257 803.853 123.183 803.853 131.033C803.853 138.884 806.242 142.809 811.021 142.809C815.885 142.809 818.317 138.884 818.317 131.033C818.317 123.183 815.885 119.257 811.021 119.257Z" fill="#E17A05"/>
</svg>
