<svg width="32" height="33" viewBox="0 0 32 33" fill="none" xmlns="http://www.w3.org/2000/svg">
<path d="M25.3333 25.5881H6.66667V10.9215H25.3333M21.3333 1.58813V4.2548H10.6667V1.58813H8V4.2548H6.66667C5.18667 4.2548 4 5.44147 4 6.92147V25.5881C4 26.2954 4.28095 26.9737 4.78105 27.4738C5.28115 27.9739 5.95942 28.2548 6.66667 28.2548H25.3333C26.0406 28.2548 26.7189 27.9739 27.219 27.4738C27.719 26.9737 28 26.2954 28 25.5881V6.92147C28 6.21422 27.719 5.53595 27.219 5.03585C26.7189 4.53575 26.0406 4.2548 25.3333 4.2548H24V1.58813M22.6667 16.2548H16V22.9215H22.6667V16.2548Z" fill="#457B9D"/>
</svg>
