<svg width="32" height="33" viewBox="0 0 32 33" fill="none" xmlns="http://www.w3.org/2000/svg">
<path d="M2.66675 26.9216H29.3334V29.5883H2.66675V26.9216ZM5.33341 16.255H8.00008V25.5883H5.33341V16.255ZM12.0001 16.255H14.6667V25.5883H12.0001V16.255ZM17.3334 16.255H20.0001V25.5883H17.3334V16.255ZM24.0001 16.255H26.6667V25.5883H24.0001V16.255ZM2.66675 9.5883L16.0001 2.92163L29.3334 9.5883V14.9216H2.66675V9.5883ZM5.33341 11.2363V12.255H26.6667V11.2363L16.0001 5.90296L5.33341 11.2363ZM16.0001 10.9216C15.6465 10.9216 15.3073 10.7812 15.0573 10.5311C14.8072 10.2811 14.6667 9.94192 14.6667 9.5883C14.6667 9.23468 14.8072 8.89554 15.0573 8.64549C15.3073 8.39544 15.6465 8.25496 16.0001 8.25496C16.3537 8.25496 16.6928 8.39544 16.9429 8.64549C17.1929 8.89554 17.3334 9.23468 17.3334 9.5883C17.3334 9.94192 17.1929 10.2811 16.9429 10.5311C16.6928 10.7812 16.3537 10.9216 16.0001 10.9216Z" fill="black"/>
</svg>
