<svg width="28" height="28" viewBox="0 0 28 28" fill="none" xmlns="http://www.w3.org/2000/svg">
<path d="M0.666626 24.6667H27.3333V27.3334H0.666626V24.6667ZM3.33329 14.0001H5.99996V23.3334H3.33329V14.0001ZM9.99996 14.0001H12.6666V23.3334H9.99996V14.0001ZM15.3333 14.0001H18V23.3334H15.3333V14.0001ZM22 14.0001H24.6666V23.3334H22V14.0001ZM0.666626 7.33341L14 0.666748L27.3333 7.33341V12.6667H0.666626V7.33341ZM3.33329 8.98142V10.0001H24.6666V8.98142L14 3.64808L3.33329 8.98142ZM14 8.66675C13.6463 8.66675 13.3072 8.52627 13.0572 8.27622C12.8071 8.02618 12.6666 7.68704 12.6666 7.33341C12.6666 6.97979 12.8071 6.64065 13.0572 6.39061C13.3072 6.14056 13.6463 6.00008 14 6.00008C14.3536 6.00008 14.6927 6.14056 14.9428 6.39061C15.1928 6.64065 15.3333 6.97979 15.3333 7.33341C15.3333 7.68704 15.1928 8.02618 14.9428 8.27622C14.6927 8.52627 14.3536 8.66675 14 8.66675Z" fill="#C63A22"/>
</svg>
