<svg width="24" height="25" viewBox="0 0 24 25" fill="none" xmlns="http://www.w3.org/2000/svg">
<path d="M2.25 19.4167C7.58561 19.4124 12.898 20.119 18.047 21.5177C18.774 21.7157 19.5 21.1757 19.5 20.4217V19.4167M3.75 5.16675V5.91675C3.75 6.11566 3.67098 6.30643 3.53033 6.44708C3.38968 6.58773 3.19891 6.66675 3 6.66675H2.25M2.25 6.66675V6.29175C2.25 5.67075 2.754 5.16675 3.375 5.16675H20.25M2.25 6.66675V15.6667M20.25 5.16675V5.91675C20.25 6.33075 20.586 6.66675 21 6.66675H21.75M20.25 5.16675H20.625C21.246 5.16675 21.75 5.67075 21.75 6.29175V16.0417C21.75 16.6627 21.246 17.1667 20.625 17.1667H20.25M2.25 15.6667V16.0417C2.25 16.3401 2.36853 16.6263 2.5795 16.8372C2.79048 17.0482 3.07663 17.1667 3.375 17.1667H3.75M2.25 15.6667H3C3.19891 15.6667 3.38968 15.7458 3.53033 15.8864C3.67098 16.0271 3.75 16.2178 3.75 16.4167V17.1667M20.25 17.1667V16.4167C20.25 16.2178 20.329 16.0271 20.4697 15.8864C20.6103 15.7458 20.8011 15.6667 21 15.6667H21.75M20.25 17.1667H3.75M15 11.1667C15 11.9624 14.6839 12.7255 14.1213 13.2881C13.5587 13.8507 12.7956 14.1667 12 14.1667C11.2044 14.1667 10.4413 13.8507 9.87868 13.2881C9.31607 12.7255 9 11.9624 9 11.1667C9 10.3711 9.31607 9.60804 9.87868 9.04543C10.4413 8.48282 11.2044 8.16675 12 8.16675C12.7956 8.16675 13.5587 8.48282 14.1213 9.04543C14.6839 9.60804 15 10.3711 15 11.1667ZM18 11.1667H18.008V11.1747H18V11.1667ZM6 11.1667H6.008V11.1747H6V11.1667Z" stroke="#C63A22" stroke-width="1.5" stroke-linecap="round" stroke-linejoin="round"/>
</svg>
