<svg width="28" height="28" viewBox="0 0 28 28" fill="none" xmlns="http://www.w3.org/2000/svg">
<path fill-rule="evenodd" clip-rule="evenodd" d="M7.66671 14.9999C8.62973 14.9999 9.58333 14.8102 10.4731 14.4417C11.3628 14.0732 12.1712 13.533 12.8522 12.852C13.5331 12.1711 14.0733 11.3627 14.4418 10.4729C14.8104 9.58321 15 8.62961 15 7.66659C15 6.70356 14.8104 5.74996 14.4418 4.86024C14.0733 3.97052 13.5331 3.1621 12.8522 2.48114C12.1712 1.80017 11.3628 1.26 10.4731 0.891469C9.58333 0.522934 8.62973 0.333252 7.66671 0.333252C5.72179 0.333252 3.85652 1.10587 2.48126 2.48114C1.10599 3.8564 0.333374 5.72166 0.333374 7.66659C0.333374 9.61151 1.10599 11.4768 2.48126 12.852C3.85652 14.2273 5.72179 14.9999 7.66671 14.9999ZM7.66671 3.00925C7.84352 3.00925 8.01309 3.07949 8.13811 3.20451C8.26314 3.32954 8.33337 3.49911 8.33337 3.67592V6.99992H11.6574C11.8342 6.99992 12.0038 7.07016 12.1288 7.19518C12.2538 7.32021 12.324 7.48977 12.324 7.66659C12.324 7.8434 12.2538 8.01297 12.1288 8.13799C12.0038 8.26301 11.8342 8.33325 11.6574 8.33325H8.33337V11.6573C8.33337 11.8341 8.26314 12.0036 8.13811 12.1287C8.01309 12.2537 7.84352 12.3239 7.66671 12.3239C7.4899 12.3239 7.32033 12.2537 7.1953 12.1287C7.07028 12.0036 7.00004 11.8341 7.00004 11.6573V8.33325H3.67604C3.49923 8.33325 3.32966 8.26301 3.20464 8.13799C3.07961 8.01297 3.00937 7.8434 3.00937 7.66659C3.00937 7.48977 3.07961 7.32021 3.20464 7.19518C3.32966 7.07016 3.49923 6.99992 3.67604 6.99992H7.00004V3.67592C7.00004 3.49911 7.07028 3.32954 7.1953 3.20451C7.32033 3.07949 7.4899 3.00925 7.66671 3.00925Z" fill="#C63A22"/>
<path d="M26.3335 17.6666H24.0668C21.8268 17.6666 20.7068 17.6666 19.8508 18.1026C19.0982 18.4861 18.4863 19.098 18.1028 19.8506C17.6668 20.7066 17.6668 21.8266 17.6668 24.0666V26.3333M19.6668 9.66659H17.6668M14.3335 14.9999H16.3335M17.3335 4.33325H17.8002C20.7868 4.33325 22.2802 4.33325 23.4215 4.91459C24.425 5.4259 25.2408 6.24177 25.7522 7.24525C26.3335 8.38659 26.3335 9.87992 26.3335 12.8666V17.4653C26.3335 18.7693 26.3335 19.4226 26.1868 20.0359C26.0548 20.5799 25.8402 21.0999 25.5468 21.5773C25.2175 22.1159 24.7562 22.5773 23.8335 23.4999L23.5002 23.8333C22.5775 24.7559 22.1162 25.2173 21.5775 25.5479C21.1004 25.8403 20.5803 26.0559 20.0362 26.1866C19.4228 26.3333 18.7695 26.3333 17.4655 26.3333H12.8668C9.88016 26.3333 8.38683 26.3333 7.2455 25.7519C6.24201 25.2406 5.42615 24.4247 4.91483 23.4213C4.3335 22.2799 4.3335 20.7866 4.3335 17.7999V17.3333" stroke="#C63A22" stroke-width="2" stroke-linecap="round" stroke-linejoin="round"/>
</svg>
