<svg width="25" height="25" viewBox="0 0 25 25" fill="none" xmlns="http://www.w3.org/2000/svg">
<path d="M18 1.33325H6.66671C5.25222 1.33325 3.89567 1.89515 2.89547 2.89535C1.89528 3.89554 1.33337 5.2521 1.33337 6.66659V17.9999C1.33337 19.4144 1.89528 20.771 2.89547 21.7712C3.89567 22.7713 5.25222 23.3333 6.66671 23.3333H15.7907C16.4913 23.3333 17.185 23.1953 17.8322 22.9272C18.4794 22.659 19.0674 22.266 19.5627 21.7706L21.7707 19.5626C22.2661 19.0673 22.6592 18.4793 22.9273 17.832C23.1954 17.1848 23.3334 16.4911 23.3334 15.7906V6.66659C23.3334 5.2521 22.7715 3.89554 21.7713 2.89535C20.7711 1.89515 19.4145 1.33325 18 1.33325Z" stroke="#C63A22" stroke-width="2" stroke-linecap="round" stroke-linejoin="round"/>
<path d="M23.3333 14.6666H18.6666C17.6058 14.6666 16.5883 15.0881 15.8382 15.8382C15.0881 16.5883 14.6666 17.6058 14.6666 18.6666V23.3333M6.66663 6.66663H16.6666M6.66663 12H13.3333" stroke="#C63A22" stroke-width="2" stroke-linecap="round" stroke-linejoin="round"/>
</svg>
