<svg width="22" height="20" viewBox="0 0 22 20" fill="none" xmlns="http://www.w3.org/2000/svg">
<g clip-path="url(#clip0_758_1050)">
<path d="M1.25 15.5834C6.58561 15.5791 11.898 16.2857 17.047 17.6844C17.774 17.8824 18.5 17.3424 18.5 16.5884V15.5834M2.75 1.3335V2.0835C2.75 2.28241 2.67098 2.47318 2.53033 2.61383C2.38968 2.75448 2.19891 2.8335 2 2.8335H1.25M1.25 2.8335V2.4585C1.25 1.8375 1.754 1.3335 2.375 1.3335H19.25M1.25 2.8335V11.8334M19.25 1.3335V2.0835C19.25 2.4975 19.586 2.8335 20 2.8335H20.75M19.25 1.3335H19.625C20.246 1.3335 20.75 1.8375 20.75 2.4585V12.2084C20.75 12.8294 20.246 13.3334 19.625 13.3334H19.25M1.25 11.8334V12.2084C1.25 12.5068 1.36853 12.793 1.5795 13.0039C1.79048 13.2149 2.07663 13.3334 2.375 13.3334H2.75M1.25 11.8334H2C2.19891 11.8334 2.38968 11.9125 2.53033 12.0531C2.67098 12.1938 2.75 12.3845 2.75 12.5834V13.3334M19.25 13.3334V12.5834C19.25 12.3845 19.329 12.1938 19.4697 12.0531C19.6103 11.9125 19.8011 11.8334 20 11.8334H20.75M19.25 13.3334H2.75M14 7.3335C14 8.12915 13.6839 8.89221 13.1213 9.45482C12.5587 10.0174 11.7956 10.3334 11 10.3334C10.2044 10.3334 9.44129 10.0174 8.87868 9.45482C8.31607 8.89221 8 8.12915 8 7.3335C8 6.53785 8.31607 5.77479 8.87868 5.21218C9.44129 4.64957 10.2044 4.3335 11 4.3335C11.7956 4.3335 12.5587 4.64957 13.1213 5.21218C13.6839 5.77479 14 6.53785 14 7.3335ZM17 7.3335H17.008V7.3415H17V7.3335ZM5 7.3335H5.008V7.3415H5V7.3335Z" stroke="#C63A22" stroke-width="1.5" stroke-linecap="round" stroke-linejoin="round"/>
</g>
<defs>
<clipPath id="clip0_758_1050">
<rect width="22" height="19" fill="white" transform="translate(0 0.166748)"/>
</clipPath>
</defs>
</svg>
