<svg width="180" height="53" viewBox="0 0 180 53" fill="none" xmlns="http://www.w3.org/2000/svg">
<g filter="url(#filter0_d_623_1722)">
<rect x="5" y="0.166687" width="170.45" height="44" rx="7.33333" fill="#C8C8C8" shape-rendering="crispEdges"/>
<path d="M42.8613 13.8655L39.15 10.1543C38.918 9.92218 38.6033 9.79176 38.2751 9.79169H23.4251C23.0969 9.79176 22.7822 9.92218 22.5502 10.1543L18.8389 13.8655C18.7236 13.9805 18.6321 14.117 18.5697 14.2674C18.5073 14.4177 18.4751 14.5789 18.4751 14.7417V30.8292C18.4751 32.1941 19.5851 33.3042 20.9501 33.3042H40.7501C42.1151 33.3042 43.2251 32.1941 43.2251 30.8292V14.7417C43.2251 14.5789 43.1929 14.4177 43.1305 14.2674C43.068 14.117 42.9766 13.9805 42.8613 13.8655ZM23.9374 12.2667H37.7628L39.0003 13.5042H22.6999L23.9374 12.2667ZM20.9501 30.8292V15.9792H40.7501L40.7526 30.8292H20.9501Z" fill="black"/>
<path d="M33.3251 18.4542H28.3751V22.1667H24.6626L30.8501 28.3542L37.0376 22.1667H33.3251V18.4542Z" fill="black"/>
<path d="M55.6865 28.1667H52.9678L57.1104 16.1667H60.3799L64.5166 28.1667H61.7979L58.792 18.9089H58.6982L55.6865 28.1667ZM55.5166 23.4499H61.9385V25.4304H55.5166V23.4499ZM65.9141 28.1667V19.1667H68.334V20.737H68.4277C68.5918 20.1784 68.8672 19.7565 69.2539 19.4714C69.6406 19.1823 70.0859 19.0378 70.5898 19.0378C70.7148 19.0378 70.8496 19.0456 70.9941 19.0612C71.1387 19.0768 71.2656 19.0983 71.375 19.1257V21.3405C71.2578 21.3054 71.0957 21.2741 70.8887 21.2468C70.6816 21.2194 70.4922 21.2057 70.3203 21.2057C69.9531 21.2057 69.625 21.2858 69.3359 21.446C69.0508 21.6022 68.8242 21.821 68.6562 22.1022C68.4922 22.3835 68.4102 22.7077 68.4102 23.0749V28.1667H65.9141ZM78.1938 31.5417V26.7253H78.1177C78.0005 26.9753 77.8345 27.2233 77.6196 27.4694C77.4087 27.7116 77.1333 27.9128 76.7935 28.0729C76.4575 28.2331 76.0474 28.3132 75.563 28.3132C74.8794 28.3132 74.2603 28.1374 73.7056 27.7858C73.1548 27.4304 72.7173 26.9089 72.3931 26.2214C72.0728 25.53 71.9126 24.6823 71.9126 23.6784C71.9126 22.6472 72.0786 21.7897 72.4106 21.1061C72.7427 20.4186 73.1841 19.905 73.7349 19.5651C74.2896 19.2214 74.897 19.0495 75.5571 19.0495C76.061 19.0495 76.481 19.1354 76.8169 19.3073C77.1567 19.4753 77.4302 19.6862 77.6372 19.9401C77.8481 20.1901 78.0083 20.4362 78.1177 20.6784H78.2231V19.1667H80.6841V31.5417H78.1938ZM76.354 26.3268C76.7563 26.3268 77.0962 26.2175 77.3735 25.9987C77.6548 25.7761 77.8696 25.4655 78.0181 25.0671C78.1704 24.6686 78.2466 24.2018 78.2466 23.6667C78.2466 23.1315 78.1724 22.6667 78.0239 22.2722C77.8755 21.8776 77.6606 21.5729 77.3794 21.3581C77.0981 21.1432 76.7563 21.0358 76.354 21.0358C75.9438 21.0358 75.5981 21.1472 75.3169 21.3698C75.0356 21.5925 74.8228 21.9011 74.6782 22.2956C74.5337 22.6901 74.4614 23.1472 74.4614 23.6667C74.4614 24.1901 74.5337 24.653 74.6782 25.0554C74.8267 25.4538 75.0396 25.7663 75.3169 25.9929C75.5981 26.2155 75.9438 26.3268 76.354 26.3268ZM88.4595 24.3347V19.1667H90.9556V28.1667H88.5591V26.5319H88.4653C88.2622 27.0593 87.9243 27.4831 87.4517 27.8034C86.9829 28.1237 86.4106 28.2839 85.7349 28.2839C85.1333 28.2839 84.604 28.1472 84.147 27.8737C83.6899 27.6003 83.3325 27.2116 83.0747 26.7077C82.8208 26.2038 82.6919 25.6003 82.688 24.8972V19.1667H85.1841V24.4518C85.188 24.9831 85.3306 25.403 85.6118 25.7116C85.8931 26.0202 86.27 26.1745 86.7427 26.1745C87.0435 26.1745 87.3247 26.1061 87.5864 25.9694C87.8481 25.8288 88.0591 25.6218 88.2192 25.3483C88.3833 25.0749 88.4634 24.737 88.4595 24.3347ZM92.9521 28.1667V19.1667H95.4482V28.1667H92.9521ZM94.2061 18.0065C93.835 18.0065 93.5166 17.8835 93.251 17.6374C92.9893 17.3874 92.8584 17.0886 92.8584 16.7409C92.8584 16.3972 92.9893 16.1022 93.251 15.8561C93.5166 15.6061 93.835 15.4811 94.2061 15.4811C94.5771 15.4811 94.8936 15.6061 95.1553 15.8561C95.4209 16.1022 95.5537 16.3972 95.5537 16.7409C95.5537 17.0886 95.4209 17.3874 95.1553 17.6374C94.8936 17.8835 94.5771 18.0065 94.2061 18.0065ZM105.838 19.1667L102.692 28.1667H99.8794L96.7329 19.1667H99.3696L101.239 25.6061H101.333L103.196 19.1667H105.838ZM109.44 28.3366C108.866 28.3366 108.354 28.237 107.905 28.0378C107.456 27.8347 107.101 27.5358 106.839 27.1413C106.581 26.7429 106.452 26.2468 106.452 25.653C106.452 25.153 106.544 24.7331 106.728 24.3932C106.911 24.0534 107.161 23.78 107.478 23.5729C107.794 23.3659 108.153 23.2097 108.556 23.1042C108.962 22.9987 109.388 22.9245 109.833 22.8815C110.356 22.8268 110.778 22.7761 111.099 22.7292C111.419 22.6784 111.651 22.6042 111.796 22.5065C111.94 22.4089 112.013 22.2643 112.013 22.0729V22.0378C112.013 21.6667 111.896 21.3796 111.661 21.1765C111.431 20.9733 111.103 20.8718 110.677 20.8718C110.228 20.8718 109.87 20.9714 109.604 21.1706C109.339 21.3659 109.163 21.612 109.077 21.9089L106.769 21.7214C106.886 21.1745 107.116 20.7018 107.46 20.3034C107.804 19.9011 108.247 19.5925 108.79 19.3776C109.337 19.1589 109.97 19.0495 110.688 19.0495C111.188 19.0495 111.667 19.1081 112.124 19.2253C112.585 19.3425 112.993 19.5241 113.349 19.7702C113.708 20.0163 113.991 20.3327 114.198 20.7194C114.405 21.1022 114.509 21.5612 114.509 22.0964V28.1667H112.142V26.9186H112.071C111.927 27.1999 111.733 27.4479 111.491 27.6628C111.249 27.8737 110.958 28.0397 110.618 28.1608C110.278 28.278 109.886 28.3366 109.44 28.3366ZM110.155 26.614C110.522 26.614 110.847 26.5417 111.128 26.3972C111.409 26.2487 111.63 26.0495 111.79 25.7995C111.95 25.5495 112.03 25.2663 112.03 24.9499V23.9948C111.952 24.0456 111.845 24.0925 111.708 24.1354C111.575 24.1745 111.425 24.2116 111.257 24.2468C111.089 24.278 110.921 24.3073 110.753 24.3347C110.585 24.3581 110.433 24.3796 110.296 24.3991C110.003 24.4421 109.747 24.5104 109.528 24.6042C109.31 24.6979 109.14 24.8249 109.019 24.985C108.897 25.1413 108.837 25.3366 108.837 25.571C108.837 25.9108 108.96 26.1706 109.206 26.3503C109.456 26.5261 109.772 26.614 110.155 26.614ZM119.762 28.3132C119.078 28.3132 118.459 28.1374 117.904 27.7858C117.354 27.4304 116.916 26.9089 116.592 26.2214C116.271 25.53 116.111 24.6823 116.111 23.6784C116.111 22.6472 116.277 21.7897 116.609 21.1061C116.941 20.4186 117.383 19.905 117.934 19.5651C118.488 19.2214 119.096 19.0495 119.756 19.0495C120.26 19.0495 120.68 19.1354 121.016 19.3073C121.355 19.4753 121.629 19.6862 121.836 19.9401C122.047 20.1901 122.207 20.4362 122.316 20.6784H122.393V16.1667H124.883V28.1667H122.422V26.7253H122.316C122.199 26.9753 122.033 27.2233 121.818 27.4694C121.607 27.7116 121.332 27.9128 120.992 28.0729C120.656 28.2331 120.246 28.3132 119.762 28.3132ZM120.553 26.3268C120.955 26.3268 121.295 26.2175 121.572 25.9987C121.854 25.7761 122.068 25.4655 122.217 25.0671C122.369 24.6686 122.445 24.2018 122.445 23.6667C122.445 23.1315 122.371 22.6667 122.223 22.2722C122.074 21.8776 121.859 21.5729 121.578 21.3581C121.297 21.1432 120.955 21.0358 120.553 21.0358C120.143 21.0358 119.797 21.1472 119.516 21.3698C119.234 21.5925 119.021 21.9011 118.877 22.2956C118.732 22.6901 118.66 23.1472 118.66 23.6667C118.66 24.1901 118.732 24.653 118.877 25.0554C119.025 25.4538 119.238 25.7663 119.516 25.9929C119.797 26.2155 120.143 26.3268 120.553 26.3268ZM129.501 28.3366C128.927 28.3366 128.416 28.237 127.966 28.0378C127.517 27.8347 127.162 27.5358 126.9 27.1413C126.642 26.7429 126.513 26.2468 126.513 25.653C126.513 25.153 126.605 24.7331 126.789 24.3932C126.972 24.0534 127.222 23.78 127.539 23.5729C127.855 23.3659 128.214 23.2097 128.617 23.1042C129.023 22.9987 129.449 22.9245 129.894 22.8815C130.417 22.8268 130.839 22.7761 131.16 22.7292C131.48 22.6784 131.712 22.6042 131.857 22.5065C132.001 22.4089 132.074 22.2643 132.074 22.0729V22.0378C132.074 21.6667 131.957 21.3796 131.722 21.1765C131.492 20.9733 131.164 20.8718 130.738 20.8718C130.289 20.8718 129.931 20.9714 129.666 21.1706C129.4 21.3659 129.224 21.612 129.138 21.9089L126.83 21.7214C126.947 21.1745 127.177 20.7018 127.521 20.3034C127.865 19.9011 128.308 19.5925 128.851 19.3776C129.398 19.1589 130.031 19.0495 130.75 19.0495C131.25 19.0495 131.728 19.1081 132.185 19.2253C132.646 19.3425 133.054 19.5241 133.41 19.7702C133.769 20.0163 134.052 20.3327 134.259 20.7194C134.466 21.1022 134.57 21.5612 134.57 22.0964V28.1667H132.203V26.9186H132.132C131.988 27.1999 131.794 27.4479 131.552 27.6628C131.31 27.8737 131.019 28.0397 130.679 28.1608C130.339 28.278 129.947 28.3366 129.501 28.3366ZM130.216 26.614C130.583 26.614 130.908 26.5417 131.189 26.3972C131.47 26.2487 131.691 26.0495 131.851 25.7995C132.011 25.5495 132.091 25.2663 132.091 24.9499V23.9948C132.013 24.0456 131.906 24.0925 131.769 24.1354C131.636 24.1745 131.486 24.2116 131.318 24.2468C131.15 24.278 130.982 24.3073 130.814 24.3347C130.646 24.3581 130.494 24.3796 130.357 24.3991C130.064 24.4421 129.808 24.5104 129.589 24.6042C129.371 24.6979 129.201 24.8249 129.08 24.985C128.958 25.1413 128.898 25.3366 128.898 25.571C128.898 25.9108 129.021 26.1706 129.267 26.3503C129.517 26.5261 129.833 26.614 130.216 26.614ZM143.995 21.7331L141.709 21.8737C141.67 21.6784 141.586 21.5026 141.458 21.3464C141.329 21.1862 141.159 21.0593 140.948 20.9655C140.741 20.8679 140.493 20.819 140.204 20.819C139.817 20.819 139.491 20.9011 139.225 21.0651C138.959 21.2253 138.827 21.4401 138.827 21.7097C138.827 21.9245 138.913 22.1061 139.084 22.2546C139.256 22.403 139.551 22.5222 139.969 22.612L141.598 22.9401C142.473 23.1198 143.125 23.4089 143.555 23.8073C143.985 24.2057 144.2 24.7292 144.2 25.3776C144.2 25.9675 144.026 26.485 143.678 26.9304C143.334 27.3757 142.862 27.7233 142.26 27.9733C141.663 28.2194 140.973 28.3425 140.192 28.3425C139 28.3425 138.051 28.0944 137.344 27.5983C136.641 27.0983 136.229 26.4186 136.108 25.5593L138.563 25.4304C138.637 25.7936 138.817 26.071 139.102 26.2624C139.387 26.4499 139.752 26.5436 140.198 26.5436C140.635 26.5436 140.987 26.4597 141.252 26.2917C141.522 26.1198 141.659 25.8991 141.663 25.6296C141.659 25.403 141.563 25.2175 141.375 25.0729C141.188 24.9245 140.899 24.8112 140.508 24.7331L138.95 24.4225C138.071 24.2468 137.417 23.9421 136.987 23.5085C136.561 23.0749 136.348 22.5222 136.348 21.8503C136.348 21.2722 136.504 20.7741 136.817 20.3561C137.133 19.9382 137.577 19.6159 138.147 19.3893C138.721 19.1628 139.393 19.0495 140.163 19.0495C141.299 19.0495 142.194 19.2897 142.846 19.7702C143.502 20.2507 143.885 20.905 143.995 21.7331Z" fill="#1E1E1E"/>
<path d="M154.902 16.7467L155.963 15.6867L161.742 21.4637C161.835 21.5563 161.909 21.6664 161.96 21.7876C162.01 21.9089 162.036 22.0389 162.036 22.1702C162.036 22.3016 162.01 22.4316 161.96 22.5528C161.909 22.6741 161.835 22.7842 161.742 22.8767L155.963 28.6567L154.903 27.5967L160.327 22.1717L154.902 16.7467Z" fill="black"/>
</g>
<defs>
<filter id="filter0_d_623_1722" x="0.6" y="0.166687" width="179.25" height="52.8" filterUnits="userSpaceOnUse" color-interpolation-filters="sRGB">
<feFlood flood-opacity="0" result="BackgroundImageFix"/>
<feColorMatrix in="SourceAlpha" type="matrix" values="0 0 0 0 0 0 0 0 0 0 0 0 0 0 0 0 0 0 127 0" result="hardAlpha"/>
<feOffset dy="4.4"/>
<feGaussianBlur stdDeviation="2.2"/>
<feComposite in2="hardAlpha" operator="out"/>
<feColorMatrix type="matrix" values="0 0 0 0 0 0 0 0 0 0 0 0 0 0 0 0 0 0 0.25 0"/>
<feBlend mode="normal" in2="BackgroundImageFix" result="effect1_dropShadow_623_1722"/>
<feBlend mode="normal" in="SourceGraphic" in2="effect1_dropShadow_623_1722" result="shape"/>
</filter>
</defs>
</svg>
