<svg width="24" height="15" viewBox="0 0 24 15" fill="none" xmlns="http://www.w3.org/2000/svg">
<path fill-rule="evenodd" clip-rule="evenodd" d="M1.71429 11.5714C2.16894 11.5714 2.60498 11.752 2.92647 12.0735C3.24796 12.395 3.42857 12.8311 3.42857 13.2857C3.42857 13.7404 3.24796 14.1764 2.92647 14.4979C2.60498 14.8194 2.16894 15 1.71429 15C1.25963 15 0.823594 14.8194 0.502103 14.4979C0.180612 14.1764 0 13.7404 0 13.2857C0 12.8311 0.180612 12.395 0.502103 12.0735C0.823594 11.752 1.25963 11.5714 1.71429 11.5714ZM22.2846 12.1429C22.9166 12.1429 23.4286 12.6503 23.4286 13.2857C23.4286 13.9171 22.92 14.4286 22.2846 14.4286H6.28686C6.1366 14.429 5.98772 14.3998 5.8488 14.3425C5.70987 14.2853 5.58363 14.2011 5.47732 14.0949C5.37102 13.9887 5.28675 13.8626 5.22935 13.7237C5.17195 13.5848 5.14256 13.436 5.14286 13.2857C5.14286 12.6543 5.65143 12.1429 6.28686 12.1429H22.2846ZM1.71429 5.85714C2.16894 5.85714 2.60498 6.03775 2.92647 6.35924C3.24796 6.68073 3.42857 7.11677 3.42857 7.57142C3.42857 8.02608 3.24796 8.46212 2.92647 8.78361C2.60498 9.1051 2.16894 9.28571 1.71429 9.28571C1.25963 9.28571 0.823594 9.1051 0.502103 8.78361C0.180612 8.46212 0 8.02608 0 7.57142C0 7.11677 0.180612 6.68073 0.502103 6.35924C0.823594 6.03775 1.25963 5.85714 1.71429 5.85714ZM22.2846 6.42857C22.9166 6.42857 23.4286 6.936 23.4286 7.57142C23.4286 8.20285 22.92 8.71428 22.2846 8.71428H6.28686C6.1366 8.71473 5.98772 8.68549 5.8488 8.62823C5.70987 8.57097 5.58363 8.48682 5.47732 8.38062C5.37102 8.27443 5.28675 8.14827 5.22935 8.0094C5.17195 7.87053 5.14256 7.72169 5.14286 7.57142C5.14286 6.94 5.65143 6.42857 6.28686 6.42857H22.2846ZM1.71429 0.142853C2.16894 0.142853 2.60498 0.323464 2.92647 0.644955C3.24796 0.966446 3.42857 1.40248 3.42857 1.85714C3.42857 2.3118 3.24796 2.74783 2.92647 3.06932C2.60498 3.39081 2.16894 3.57142 1.71429 3.57142C1.25963 3.57142 0.823594 3.39081 0.502103 3.06932C0.180612 2.74783 0 2.3118 0 1.85714C0 1.40248 0.180612 0.966446 0.502103 0.644955C0.823594 0.323464 1.25963 0.142853 1.71429 0.142853ZM22.2846 0.714281C22.9166 0.714281 23.4286 1.22171 23.4286 1.85714C23.4286 2.48857 22.92 3 22.2846 3H6.28686C6.1366 3.00045 5.98772 2.9712 5.8488 2.91394C5.70987 2.85668 5.58363 2.77254 5.47732 2.66634C5.37102 2.56014 5.28675 2.43398 5.22935 2.29511C5.17195 2.15624 5.14256 2.0074 5.14286 1.85714C5.14286 1.22571 5.65143 0.714281 6.28686 0.714281H22.2846Z" fill="#1E1E1E"/>
</svg>
