<svg width="824" height="236" viewBox="0 0 824 236" fill="none" xmlns="http://www.w3.org/2000/svg">
<path d="M330.507 169.128C322.912 169.128 319.115 168.275 319.115 166.568L316.427 115.24L300.811 167.208C300.469 168.232 297.568 168.744 292.107 168.744C286.645 168.744 283.829 168.275 283.659 167.336L267.531 114.728L265.739 165.8C265.653 167.08 264.032 167.976 260.875 168.488C257.717 168.915 255.072 169.128 252.939 169.128C250.891 169.128 248.885 169 246.923 168.744C242.827 168.147 240.821 167.08 240.907 165.544L243.851 82.344C243.851 80.296 249.056 79.272 259.467 79.272C262.539 79.272 266.293 79.528 270.731 80.04C275.168 80.4667 277.643 81.3627 278.155 82.728L292.491 123.048L305.035 82.6C305.803 80.3813 311.691 79.272 322.699 79.272C325.856 79.272 329.611 79.528 333.963 80.04C338.4 80.4667 340.619 81.2773 340.619 82.472L344.331 166.44C344.331 167.379 342.667 168.061 339.339 168.488C336.011 168.915 333.067 169.128 330.507 169.128ZM404.776 165.544C399.4 168.701 392.488 170.28 384.04 170.28C375.592 170.28 368.466 167.421 362.664 161.704C356.861 155.901 353.96 147.923 353.96 137.768C353.96 127.528 356.733 119.293 362.28 113.064C367.912 106.835 374.994 103.72 383.528 103.72C392.061 103.72 398.632 105.896 403.24 110.248C407.933 114.6 410.28 119.891 410.28 126.12C410.28 139.944 402.344 146.856 386.472 146.856H377.64C377.64 149.416 378.322 151.208 379.688 152.232C381.138 153.171 383.229 153.64 385.96 153.64C391.933 153.64 397.608 152.275 402.984 149.544C403.069 149.459 403.453 150.056 404.136 151.336C406.184 155.005 407.208 158.12 407.208 160.68C407.208 163.155 406.397 164.776 404.776 165.544ZM388.776 128.552C388.776 124.968 387.026 123.176 383.528 123.176C381.906 123.176 380.498 123.688 379.304 124.712C378.194 125.651 377.64 127.059 377.64 128.936V132.904H384.552C387.368 132.904 388.776 131.453 388.776 128.552ZM418.002 105.768C418.002 104.829 421.671 104.36 429.01 104.36C436.348 104.36 440.018 104.829 440.018 105.768V143.144C440.018 147.411 441.383 149.544 444.114 149.544C446.162 149.544 448.466 148.648 451.026 146.856V105.768C451.026 104.915 454.652 104.488 461.906 104.488C469.159 104.488 472.786 104.915 472.786 105.768V147.752H476.114C479.015 147.752 480.466 150.525 480.466 156.072C480.466 158.888 479.868 161.747 478.674 164.648C476.967 168.403 474.663 170.28 471.762 170.28C466.044 170.28 461.82 167.933 459.09 163.24L458.962 163.368C453.756 167.976 448.167 170.28 442.194 170.28C433.916 170.28 427.815 168.232 423.89 164.136C419.964 159.955 418.002 153.085 418.002 143.528V105.768Z" fill="#1E1E1E"/>
<path d="M551.755 102.568C551.755 111.443 547.915 118.184 540.235 122.792C544.416 124.328 547.915 126.973 550.731 130.728C553.547 134.483 554.955 139.816 554.955 146.728C554.955 153.555 552.395 158.973 547.275 162.984C542.24 166.995 534.987 169 525.515 169H495.307C493.856 169 492.661 168.531 491.723 167.592C490.784 166.568 490.315 165.245 490.315 163.624V81.704C490.315 80.7653 490.443 80.168 490.699 79.912C491.04 79.5707 491.68 79.4 492.619 79.4H521.803C541.771 79.4 551.755 87.1227 551.755 102.568ZM514.891 100.136V116.904H515.531C523.723 116.904 527.819 114.173 527.819 108.712C527.819 105.725 527.008 103.549 525.387 102.184C523.851 100.819 521.248 100.136 517.579 100.136H514.891ZM514.891 132.008V148.648H517.195C520.864 148.648 523.552 147.965 525.259 146.6C526.965 145.235 527.819 143.059 527.819 140.072C527.819 137.085 527.008 134.995 525.387 133.8C523.851 132.605 521.248 132.008 517.579 132.008H514.891ZM569.771 161.448C564.48 155.56 561.835 147.411 561.835 137C561.835 126.589 564.48 118.44 569.771 112.552C575.147 106.664 582.357 103.72 591.403 103.72C600.448 103.72 607.616 106.664 612.907 112.552C618.197 118.44 620.843 126.589 620.843 137C620.843 147.411 618.197 155.56 612.907 161.448C607.616 167.336 600.448 170.28 591.403 170.28C582.357 170.28 575.147 167.336 569.771 161.448ZM591.403 125.096C586.624 125.096 584.235 129.021 584.235 136.872C584.235 144.723 586.624 148.648 591.403 148.648C596.267 148.648 598.699 144.723 598.699 136.872C598.699 129.021 596.267 125.096 591.403 125.096ZM653.188 167.976C653.188 168.744 648.836 169.128 640.132 169.128C633.305 169.043 629.892 168.701 629.892 168.104V80.936C629.892 79.656 634.03 79.016 642.308 79.016C649.561 79.272 653.188 79.6987 653.188 80.296V167.976ZM667.455 145.96C674.367 150.141 679.828 152.232 683.839 152.232C686.399 152.232 687.679 151.336 687.679 149.544C687.679 148.264 685.46 146.6 681.023 144.552C670.356 140.2 665.023 133.075 665.023 123.176C665.023 116.861 667.327 112.04 671.935 108.712C676.543 105.384 682.047 103.72 688.447 103.72C694.932 103.72 700.393 104.403 704.831 105.768C709.353 107.133 711.615 108.925 711.615 111.144C711.615 113.021 710.676 115.496 708.799 118.568C707.007 121.64 705.769 123.304 705.087 123.56C701.417 121.512 697.449 120.488 693.183 120.488C690.879 120.488 689.727 121.299 689.727 122.92C689.727 123.944 690.153 124.84 691.007 125.608C691.945 126.291 693.609 127.187 695.999 128.296C698.388 129.32 700.351 130.259 701.887 131.112C703.508 131.965 705.3 133.16 707.263 134.696C711.359 137.939 713.407 142.163 713.407 147.368C713.407 154.195 711.145 159.741 706.623 164.008C702.1 168.189 695.273 170.28 686.143 170.28C680.084 170.28 674.58 169.256 669.631 167.208C664.681 165.16 662.207 162.344 662.207 158.76C662.207 156.371 662.761 153.853 663.871 151.208C665.065 148.563 666.26 146.813 667.455 145.96ZM727.896 161.448C722.605 155.56 719.96 147.411 719.96 137C719.96 126.589 722.605 118.44 727.896 112.552C733.272 106.664 740.482 103.72 749.528 103.72C758.573 103.72 765.741 106.664 771.032 112.552C776.322 118.44 778.968 126.589 778.968 137C778.968 147.411 776.322 155.56 771.032 161.448C765.741 167.336 758.573 170.28 749.528 170.28C740.482 170.28 733.272 167.336 727.896 161.448ZM749.528 125.096C744.749 125.096 742.36 129.021 742.36 136.872C742.36 144.723 744.749 148.648 749.528 148.648C754.392 148.648 756.824 144.723 756.824 136.872C756.824 129.021 754.392 125.096 749.528 125.096Z" fill="#E17A05"/>
</svg>
