<svg width="36" height="37" viewBox="0 0 36 37" fill="none" xmlns="http://www.w3.org/2000/svg">
<rect y="0.5" width="36" height="36" rx="4" fill="#E17A05"/>
<path d="M20.1429 16.3572C20.1429 17.4938 19.6913 18.5839 18.8876 19.3877C18.0839 20.1914 16.9938 20.6429 15.8571 20.6429C14.7205 20.6429 13.6304 20.1914 12.8267 19.3877C12.023 18.5839 11.5714 17.4938 11.5714 16.3572C11.5714 15.2206 12.023 14.1305 12.8267 13.3267C13.6304 12.523 14.7205 12.0715 15.8571 12.0715C16.9938 12.0715 18.0839 12.523 18.8876 13.3267C19.6913 14.1305 20.1429 15.2206 20.1429 16.3572ZM18 16.3572C18 15.7889 17.7742 15.2438 17.3724 14.842C16.9705 14.4401 16.4255 14.2143 15.8571 14.2143C15.2888 14.2143 14.7438 14.4401 14.3419 14.842C13.9401 15.2438 13.7143 15.7889 13.7143 16.3572C13.7143 16.9255 13.9401 17.4706 14.3419 17.8724C14.7438 18.2743 15.2888 18.5001 15.8571 18.5001C16.4255 18.5001 16.9705 18.2743 17.3724 17.8724C17.7742 17.4706 18 16.9255 18 16.3572ZM3 10.4643C3 8.98577 4.2 7.78577 5.67857 7.78577H26.0357C27.5143 7.78577 28.7143 8.98577 28.7143 10.4643V22.2501C28.7143 23.7286 27.5143 24.9286 26.0357 24.9286H5.67857C4.2 24.9286 3 23.7286 3 22.2501V10.4643ZM5.67857 9.92862C5.53649 9.92862 5.40023 9.98506 5.29976 10.0855C5.1993 10.186 5.14286 10.3223 5.14286 10.4643V12.0715H6.21429C6.49845 12.0715 6.77097 11.9586 6.9719 11.7577C7.17283 11.5567 7.28571 11.2842 7.28571 11.0001V9.92862H5.67857ZM5.14286 22.2501C5.14286 22.5458 5.38286 22.7858 5.67857 22.7858H7.28571V21.7143C7.28571 21.4302 7.17283 21.1577 6.9719 20.9567C6.77097 20.7558 6.49845 20.6429 6.21429 20.6429H5.14286V22.2501ZM9.42857 21.7143V22.7858H22.2857V21.7143C22.2857 20.8619 22.6244 20.0443 23.2272 19.4415C23.83 18.8387 24.6475 18.5001 25.5 18.5001H26.5714V14.2143H25.5C24.6475 14.2143 23.83 13.8757 23.2272 13.2729C22.6244 12.6701 22.2857 11.8525 22.2857 11.0001V9.92862H9.42857V11.0001C9.42857 11.8525 9.08992 12.6701 8.48713 13.2729C7.88433 13.8757 7.06677 14.2143 6.21429 14.2143H5.14286V18.5001H6.21429C7.06677 18.5001 7.88433 18.8387 8.48713 19.4415C9.08992 20.0443 9.42857 20.8619 9.42857 21.7143ZM24.4286 22.7858H26.0357C26.1778 22.7858 26.3141 22.7293 26.4145 22.6289C26.515 22.5284 26.5714 22.3921 26.5714 22.2501V20.6429H25.5C25.2158 20.6429 24.9433 20.7558 24.7424 20.9567C24.5415 21.1577 24.4286 21.4302 24.4286 21.7143V22.7858ZM26.5714 12.0715V10.4643C26.5714 10.3223 26.515 10.186 26.4145 10.0855C26.3141 9.98506 26.1778 9.92862 26.0357 9.92862H24.4286V11.0001C24.4286 11.2842 24.5415 11.5567 24.7424 11.7577C24.9433 11.9586 25.2158 12.0715 25.5 12.0715H26.5714ZM10.5 29.2143C9.82118 29.2146 9.15971 28.9999 8.6104 28.6011C8.06108 28.2023 7.65212 27.6399 7.44214 26.9943C7.73929 27.0458 8.04429 27.0715 8.35714 27.0715H26.0357C27.3144 27.0715 28.5408 26.5635 29.445 25.6593C30.3492 24.7551 30.8571 23.5288 30.8571 22.2501V12.2536C31.4841 12.4753 32.0269 12.8859 32.4107 13.429C32.7944 13.9721 33.0003 14.6208 33 15.2858V22.2501C33 23.1646 32.8199 24.0702 32.4699 24.9152C32.1199 25.7601 31.6069 26.5279 30.9602 27.1745C30.3135 27.8212 29.5458 28.3342 28.7008 28.6842C27.8559 29.0342 26.9503 29.2143 26.0357 29.2143H10.5Z" fill="#1E1E1E"/>
</svg>
