<svg width="33" height="33" viewBox="0 0 33 33" fill="none" xmlns="http://www.w3.org/2000/svg">
<path d="M16.5 2.75C8.90588 2.75 2.75 8.90588 2.75 16.5C2.75 24.0941 8.90588 30.25 16.5 30.25C24.0941 30.25 30.25 24.0941 30.25 16.5C30.25 8.90588 24.0941 2.75 16.5 2.75Z" stroke="#1E1E1E" stroke-width="1.5" stroke-linecap="round" stroke-linejoin="round"/>
<path d="M5.87256 25.2257C5.87256 25.2257 8.93743 21.3125 16.4999 21.3125C24.0624 21.3125 27.1287 25.2257 27.1287 25.2257M16.4999 16.5C17.594 16.5 18.6432 16.0654 19.4167 15.2918C20.1903 14.5182 20.6249 13.469 20.6249 12.375C20.6249 11.281 20.1903 10.2318 19.4167 9.45818C18.6432 8.6846 17.594 8.25 16.4999 8.25C15.4059 8.25 14.3567 8.6846 13.5831 9.45818C12.8095 10.2318 12.3749 11.281 12.3749 12.375C12.3749 13.469 12.8095 14.5182 13.5831 15.2918C14.3567 16.0654 15.4059 16.5 16.4999 16.5Z" stroke="#1E1E1E" stroke-width="1.5" stroke-linecap="round" stroke-linejoin="round"/>
</svg>
