<svg width="32" height="33" viewBox="0 0 32 33" fill="none" xmlns="http://www.w3.org/2000/svg">
<path d="M21.9999 5.58813H10.6666C9.2521 5.58813 7.89554 6.15004 6.89535 7.15023C5.89515 8.15043 5.33325 9.50698 5.33325 10.9215V22.2548C5.33325 23.6693 5.89515 25.0258 6.89535 26.026C7.89554 27.0262 9.2521 27.5881 10.6666 27.5881H19.7906C20.4911 27.5882 21.1848 27.4502 21.832 27.182C22.4793 26.9139 23.0673 26.5209 23.5626 26.0255L25.7706 23.8175C26.266 23.3222 26.659 22.7341 26.9272 22.0869C27.1953 21.4397 27.3333 20.746 27.3333 20.0455V10.9215C27.3333 9.50698 26.7713 8.15043 25.7712 7.15023C24.771 6.15004 23.4144 5.58813 21.9999 5.58813Z" stroke="black" stroke-width="2" stroke-linecap="round" stroke-linejoin="round"/>
<path d="M27.3332 18.9214H22.6665C21.6056 18.9214 20.5882 19.3428 19.8381 20.093C19.0879 20.8431 18.6665 21.8605 18.6665 22.9214V27.5881M10.6665 10.9214H20.6665M10.6665 16.2547H17.3332" stroke="black" stroke-width="2" stroke-linecap="round" stroke-linejoin="round"/>
</svg>
