<svg width="32" height="32" viewBox="0 0 32 32" fill="none" xmlns="http://www.w3.org/2000/svg">
<path d="M21.9999 5.33337H10.6666C9.2521 5.33337 7.89554 5.89528 6.89535 6.89547C5.89515 7.89567 5.33325 9.25222 5.33325 10.6667V22C5.33325 23.4145 5.89515 24.7711 6.89535 25.7713C7.89554 26.7715 9.2521 27.3334 10.6666 27.3334H19.7906C20.4911 27.3334 21.1848 27.1954 21.832 26.9273C22.4793 26.6592 23.0673 26.2661 23.5626 25.7707L25.7706 23.5627C26.266 23.0674 26.659 22.4794 26.9272 21.8322C27.1953 21.185 27.3333 20.4913 27.3333 19.7907V10.6667C27.3333 9.25222 26.7713 7.89567 25.7712 6.89547C24.771 5.89528 23.4144 5.33337 21.9999 5.33337Z" stroke="black" stroke-width="2" stroke-linecap="round" stroke-linejoin="round"/>
<path d="M27.3332 18.6667H22.6665C21.6056 18.6667 20.5882 19.0882 19.8381 19.8383C19.0879 20.5885 18.6665 21.6059 18.6665 22.6667V27.3334M10.6665 10.6667H20.6665M10.6665 16.0001H17.3332" stroke="black" stroke-width="2" stroke-linecap="round" stroke-linejoin="round"/>
</svg>
