<svg width="24" height="27" viewBox="0 0 24 27" fill="none" xmlns="http://www.w3.org/2000/svg">
<path d="M21.3333 24.3334H2.66667V9.66671H21.3333M17.3333 0.333374V3.00004H6.66667V0.333374H4V3.00004H2.66667C1.18667 3.00004 0 4.18671 0 5.66671V24.3334C0 25.0406 0.280951 25.7189 0.781048 26.219C1.28115 26.7191 1.95942 27 2.66667 27H21.3333C22.0406 27 22.7189 26.7191 23.219 26.219C23.719 25.7189 24 25.0406 24 24.3334V5.66671C24 4.95946 23.719 4.28119 23.219 3.78109C22.7189 3.28099 22.0406 3.00004 21.3333 3.00004H20V0.333374M18.6667 15H12V21.6667H18.6667V15Z" fill="#2A9D8F"/>
</svg>
