<svg width="22" height="19" viewBox="0 0 22 19" fill="none" xmlns="http://www.w3.org/2000/svg">
<path d="M1.25 15.4167C6.58561 15.4124 11.898 16.119 17.047 17.5177C17.774 17.7157 18.5 17.1757 18.5 16.4217V15.4167M2.75 1.16675V1.91675C2.75 2.11566 2.67098 2.30643 2.53033 2.44708C2.38968 2.58773 2.19891 2.66675 2 2.66675H1.25M1.25 2.66675V2.29175C1.25 1.67075 1.754 1.16675 2.375 1.16675H19.25M1.25 2.66675V11.6667M19.25 1.16675V1.91675C19.25 2.33075 19.586 2.66675 20 2.66675H20.75M19.25 1.16675H19.625C20.246 1.16675 20.75 1.67075 20.75 2.29175V12.0417C20.75 12.6627 20.246 13.1667 19.625 13.1667H19.25M1.25 11.6667V12.0417C1.25 12.3401 1.36853 12.6263 1.5795 12.8372C1.79048 13.0482 2.07663 13.1667 2.375 13.1667H2.75M1.25 11.6667H2C2.19891 11.6667 2.38968 11.7458 2.53033 11.8864C2.67098 12.0271 2.75 12.2178 2.75 12.4167V13.1667M19.25 13.1667V12.4167C19.25 12.2178 19.329 12.0271 19.4697 11.8864C19.6103 11.7458 19.8011 11.6667 20 11.6667H20.75M19.25 13.1667H2.75M14 7.16675C14 7.9624 13.6839 8.72546 13.1213 9.28807C12.5587 9.85068 11.7956 10.1667 11 10.1667C10.2044 10.1667 9.44129 9.85068 8.87868 9.28807C8.31607 8.72546 8 7.9624 8 7.16675C8 6.3711 8.31607 5.60804 8.87868 5.04543C9.44129 4.48282 10.2044 4.16675 11 4.16675C11.7956 4.16675 12.5587 4.48282 13.1213 5.04543C13.6839 5.60804 14 6.3711 14 7.16675ZM17 7.16675H17.008V7.17475H17V7.16675ZM5 7.16675H5.008V7.17475H5V7.16675Z" stroke="#2A9D8F" stroke-width="1.5" stroke-linecap="round" stroke-linejoin="round"/>
</svg>
